<svg xmlns="http://www.w3.org/2000/svg" width="32" height="32" fill="none" viewBox="0 0 95 95">
  <mask id="a" width="77" height="45" x="9" y="25" maskUnits="userSpaceOnUse" style="mask-type:alpha">
    <path fill="#34A853" d="M85.122 64.795a38.463 38.463 0 0 0-3.26-8.647 38.68 38.68 0 0 0-9.074-11.447 38.79 38.79 0 0 0-4.813-3.542c.016-.024.029-.05.044-.075.776-1.341 1.555-2.68 2.331-4.022l2.28-3.928 1.636-2.822a3.543 3.543 0 0 0-1.251-4.816 3.569 3.569 0 0 0-2.173-.478 3.535 3.535 0 0 0-2.698 1.743l-1.636 2.822-2.279 3.928c-.776 1.341-1.555 2.68-2.332 4.022l-.255.44c-.118-.046-.234-.093-.353-.138a38.633 38.633 0 0 0-13.786-2.525c-.133 0-.265 0-.398.002a38.652 38.652 0 0 0-12.338 2.14c-.449.156-.891.321-1.33.494l-.239-.411c-.776-1.341-1.555-2.68-2.331-4.022a136999.438 136999.438 0 0 0-3.916-6.75 3.534 3.534 0 0 0-3.364-1.748 3.517 3.517 0 0 0-1.506.484 3.526 3.526 0 0 0-1.61 2.13 3.542 3.542 0 0 0 .359 2.685l1.636 2.822 2.28 3.928c.776 1.341 1.554 2.68 2.331 4.022l.019.034a38.894 38.894 0 0 0-11.142 10.451 38.38 38.38 0 0 0-2.81 4.581 38.494 38.494 0 0 0-3.26 8.647c-.65 2.647 1.496 5.025 4.223 5.025H80.89c2.727 0 4.88-2.38 4.231-5.03Z"/>
  </mask>
  <g mask="url(#a)">
    <path fill="url(#b)" d="M86.42 23.578H4.227v46.245H86.42V23.578Z"/>
  </g>
  <path fill="#000" d="M31.674 58.666c1.441-2.181 1.182-4.886-.577-6.078-1.758-1.164-4.323-.35-5.765 1.803-1.44 2.181-1.181 4.886.577 6.079 1.758 1.163 4.324.349 5.765-1.804ZM62.922 58.702c-1.441-2.182-1.182-4.887.577-6.08 1.758-1.163 4.324-.348 5.765 1.804 1.441 2.181 1.182 4.886-.577 6.079-1.758 1.163-4.323.349-5.765-1.803Z"/>
  <defs>
    <radialGradient id="b" cx="0" cy="0" r="1" gradientTransform="rotate(91.332 -3.712 50.905) scale(34.8621 55.3435)" gradientUnits="userSpaceOnUse">
      <stop offset=".307" stop-color="#4FAF53"/>
      <stop offset="1" stop-color="#118016"/>
      <stop offset="1" stop-color="#4FAF53" stop-opacity="0"/>
    </radialGradient>
  </defs>
</svg>